<?xml version="1.0" encoding="UTF-8" standalone="no"?>
<!DOCTYPE svg PUBLIC "-//W3C//DTD SVG 1.0//EN" "http://www.w3.org/TR/2001/REC-SVG-20010904/DTD/svg10.dtd">
<svg width="116.79cm" height="24.84cm" xmlns="http://www.w3.org/2000/svg">
<rect width="116.79cm" height="24.84cm" style="fill: none;"/>
<rect x="2.73cm" y="2.73cm" width="8.93cm" height="1.59cm" style="fill:#808080; stroke:#808080; stroke-width:1;"/>
<rect x="2.58cm" y="2.58cm" width="8.93cm" height="1.59cm" style="fill:#ffffff; stroke:#000000; stroke-width:0.500000;"/>
<rect x="12.98cm" y="2.73cm" width="8.93cm" height="1.59cm" style="fill:#808080; stroke:#808080; stroke-width:1;"/>
<rect x="12.83cm" y="2.58cm" width="8.93cm" height="1.59cm" style="fill:#ffffff; stroke:#000000; stroke-width:0.500000;"/>
<rect x="23.23cm" y="2.73cm" width="8.93cm" height="1.59cm" style="fill:#808080; stroke:#808080; stroke-width:1;"/>
<rect x="23.08cm" y="2.58cm" width="8.93cm" height="1.59cm" style="fill:#ffffff; stroke:#000000; stroke-width:0.500000;"/>
<rect x="33.48cm" y="2.73cm" width="8.93cm" height="1.59cm" style="fill:#808080; stroke:#808080; stroke-width:1;"/>
<rect x="33.33cm" y="2.58cm" width="8.93cm" height="1.59cm" style="fill:#ffffff; stroke:#000000; stroke-width:0.500000;"/>
<rect x="43.73cm" y="2.73cm" width="8.93cm" height="1.59cm" style="fill:#808080; stroke:#808080; stroke-width:1;"/>
<rect x="43.58cm" y="2.58cm" width="8.93cm" height="1.59cm" style="fill:#ffffff; stroke:#000000; stroke-width:0.500000;"/>
<rect x="53.98cm" y="2.73cm" width="8.93cm" height="1.59cm" style="fill:#808080; stroke:#808080; stroke-width:1;"/>
<rect x="53.83cm" y="2.58cm" width="8.93cm" height="1.59cm" style="fill:#ffffff; stroke:#000000; stroke-width:0.500000;"/>
<rect x="64.24cm" y="2.73cm" width="8.93cm" height="1.59cm" style="fill:#808080; stroke:#808080; stroke-width:1;"/>
<rect x="64.09cm" y="2.58cm" width="8.93cm" height="1.59cm" style="fill:#ffffff; stroke:#000000; stroke-width:0.500000;"/>
<rect x="74.49cm" y="2.73cm" width="8.93cm" height="1.11cm" style="fill:#808080; stroke:#808080; stroke-width:1;"/>
<rect x="74.34cm" y="2.58cm" width="8.93cm" height="1.11cm" style="fill:#ffffff; stroke:#000000; stroke-width:0.500000;"/>
<rect x="84.74cm" y="2.73cm" width="8.93cm" height="1.59cm" style="fill:#808080; stroke:#808080; stroke-width:1;"/>
<rect x="84.59cm" y="2.58cm" width="8.93cm" height="1.59cm" style="fill:#ffffff; stroke:#000000; stroke-width:0.500000;"/>
<rect x="94.99cm" y="2.73cm" width="8.93cm" height="1.59cm" style="fill:#808080; stroke:#808080; stroke-width:1;"/>
<rect x="94.84cm" y="2.58cm" width="8.93cm" height="1.59cm" style="fill:#ffffff; stroke:#000000; stroke-width:0.500000;"/>
<rect x="105.24cm" y="2.73cm" width="8.93cm" height="1.59cm" style="fill:#808080; stroke:#808080; stroke-width:1;"/>
<rect x="105.09cm" y="2.58cm" width="8.93cm" height="1.59cm" style="fill:#ffffff; stroke:#000000; stroke-width:0.500000;"/>
<rect x="74.83cm" y="4.08cm" width="8.43cm" height="0.63cm" style="fill:#ffffff; stroke:#000000; stroke-width:0.500000;"/>
<line x1="83.27cm" y1="4.39cm" x2="84.26cm" y2="4.39cm" style="stroke:#000000; stroke-width:0.50pt;"/>
<line x1="84.26cm" y1="3.37cm" x2="84.26cm" y2="7.84cm" style="stroke:#000000; stroke-width:0.50pt;"/>
<line x1="84.26cm" y1="3.37cm" x2="84.59cm" y2="3.37cm" style="stroke:#000000; stroke-width:0.50pt;"/>
<line x1="84.26cm" y1="7.84cm" x2="84.59cm" y2="7.84cm" style="stroke:#000000; stroke-width:0.50pt;"/>
<rect x="3.07cm" y="4.55cm" width="8.43cm" height="0.63cm" style="fill:#ffffff; stroke:#000000; stroke-width:0.500000;"/>
<line x1="11.50cm" y1="4.87cm" x2="12.50cm" y2="4.87cm" style="stroke:#000000; stroke-width:0.50pt;"/>
<line x1="12.50cm" y1="3.37cm" x2="12.50cm" y2="4.87cm" style="stroke:#000000; stroke-width:0.50pt;"/>
<line x1="12.50cm" y1="3.37cm" x2="12.83cm" y2="3.37cm" style="stroke:#000000; stroke-width:0.50pt;"/>
<rect x="13.32cm" y="4.55cm" width="8.43cm" height="0.63cm" style="fill:#ffffff; stroke:#000000; stroke-width:0.500000;"/>
<line x1="21.76cm" y1="4.87cm" x2="22.75cm" y2="4.87cm" style="stroke:#000000; stroke-width:0.50pt;"/>
<line x1="22.75cm" y1="3.37cm" x2="22.75cm" y2="4.87cm" style="stroke:#000000; stroke-width:0.50pt;"/>
<line x1="22.75cm" y1="3.37cm" x2="23.08cm" y2="3.37cm" style="stroke:#000000; stroke-width:0.50pt;"/>
<rect x="23.57cm" y="4.55cm" width="8.43cm" height="0.63cm" style="fill:#ffffff; stroke:#000000; stroke-width:0.500000;"/>
<line x1="32.01cm" y1="4.87cm" x2="33.00cm" y2="4.87cm" style="stroke:#000000; stroke-width:0.50pt;"/>
<line x1="33.00cm" y1="3.37cm" x2="33.00cm" y2="12.93cm" style="stroke:#000000; stroke-width:0.50pt;"/>
<line x1="33.00cm" y1="3.37cm" x2="33.33cm" y2="3.37cm" style="stroke:#000000; stroke-width:0.50pt;"/>
<line x1="33.00cm" y1="7.84cm" x2="33.33cm" y2="7.84cm" style="stroke:#000000; stroke-width:0.50pt;"/>
<line x1="33.00cm" y1="9.54cm" x2="33.33cm" y2="9.54cm" style="stroke:#000000; stroke-width:0.50pt;"/>
<line x1="33.00cm" y1="11.24cm" x2="33.33cm" y2="11.24cm" style="stroke:#000000; stroke-width:0.50pt;"/>
<line x1="33.00cm" y1="12.93cm" x2="33.33cm" y2="12.93cm" style="stroke:#000000; stroke-width:0.50pt;"/>
<rect x="33.82cm" y="4.55cm" width="8.43cm" height="0.63cm" style="fill:#ffffff; stroke:#000000; stroke-width:0.500000;"/>
<line x1="42.26cm" y1="4.87cm" x2="43.25cm" y2="4.87cm" style="stroke:#000000; stroke-width:0.50pt;"/>
<line x1="43.25cm" y1="3.37cm" x2="43.25cm" y2="10.37cm" style="stroke:#000000; stroke-width:0.50pt;"/>
<line x1="43.25cm" y1="3.37cm" x2="43.58cm" y2="3.37cm" style="stroke:#000000; stroke-width:0.50pt;"/>
<line x1="43.25cm" y1="10.37cm" x2="43.58cm" y2="10.37cm" style="stroke:#000000; stroke-width:0.50pt;"/>
<rect x="44.08cm" y="4.55cm" width="8.43cm" height="0.63cm" style="fill:#ffffff; stroke:#000000; stroke-width:0.500000;"/>
<line x1="52.51cm" y1="4.87cm" x2="53.50cm" y2="4.87cm" style="stroke:#000000; stroke-width:0.50pt;"/>
<line x1="53.50cm" y1="3.37cm" x2="53.50cm" y2="21.51cm" style="stroke:#000000; stroke-width:0.50pt;"/>
<line x1="53.50cm" y1="3.37cm" x2="53.83cm" y2="3.37cm" style="stroke:#000000; stroke-width:0.50pt;"/>
<line x1="53.50cm" y1="11.32cm" x2="53.83cm" y2="11.32cm" style="stroke:#000000; stroke-width:0.50pt;"/>
<line x1="53.50cm" y1="13.02cm" x2="53.83cm" y2="13.02cm" style="stroke:#000000; stroke-width:0.50pt;"/>
<line x1="53.50cm" y1="14.72cm" x2="53.83cm" y2="14.72cm" style="stroke:#000000; stroke-width:0.50pt;"/>
<line x1="53.50cm" y1="16.42cm" x2="53.83cm" y2="16.42cm" style="stroke:#000000; stroke-width:0.50pt;"/>
<line x1="53.50cm" y1="18.12cm" x2="53.83cm" y2="18.12cm" style="stroke:#000000; stroke-width:0.50pt;"/>
<line x1="53.50cm" y1="19.82cm" x2="53.83cm" y2="19.82cm" style="stroke:#000000; stroke-width:0.50pt;"/>
<line x1="53.50cm" y1="21.51cm" x2="53.83cm" y2="21.51cm" style="stroke:#000000; stroke-width:0.50pt;"/>
<rect x="54.33cm" y="4.55cm" width="8.43cm" height="0.63cm" style="fill:#ffffff; stroke:#000000; stroke-width:0.500000;"/>
<line x1="62.76cm" y1="4.87cm" x2="63.75cm" y2="4.87cm" style="stroke:#000000; stroke-width:0.50pt;"/>
<line x1="63.75cm" y1="3.37cm" x2="63.75cm" y2="11.71cm" style="stroke:#000000; stroke-width:0.50pt;"/>
<line x1="63.75cm" y1="3.37cm" x2="64.09cm" y2="3.37cm" style="stroke:#000000; stroke-width:0.50pt;"/>
<line x1="63.75cm" y1="8.31cm" x2="64.09cm" y2="8.31cm" style="stroke:#000000; stroke-width:0.50pt;"/>
<line x1="63.75cm" y1="10.01cm" x2="64.09cm" y2="10.01cm" style="stroke:#000000; stroke-width:0.50pt;"/>
<line x1="63.75cm" y1="11.71cm" x2="64.09cm" y2="11.71cm" style="stroke:#000000; stroke-width:0.50pt;"/>
<rect x="64.58cm" y="4.55cm" width="8.43cm" height="0.63cm" style="fill:#ffffff; stroke:#000000; stroke-width:0.500000;"/>
<line x1="73.01cm" y1="4.87cm" x2="74.01cm" y2="4.87cm" style="stroke:#000000; stroke-width:0.50pt;"/>
<line x1="74.01cm" y1="3.13cm" x2="74.01cm" y2="21.43cm" style="stroke:#000000; stroke-width:0.50pt;"/>
<line x1="74.01cm" y1="3.13cm" x2="74.34cm" y2="3.13cm" style="stroke:#000000; stroke-width:0.50pt;"/>
<line x1="74.01cm" y1="7.84cm" x2="74.34cm" y2="7.84cm" style="stroke:#000000; stroke-width:0.50pt;"/>
<line x1="74.01cm" y1="9.54cm" x2="74.34cm" y2="9.54cm" style="stroke:#000000; stroke-width:0.50pt;"/>
<line x1="74.01cm" y1="11.24cm" x2="74.34cm" y2="11.24cm" style="stroke:#000000; stroke-width:0.50pt;"/>
<line x1="74.01cm" y1="12.93cm" x2="74.34cm" y2="12.93cm" style="stroke:#000000; stroke-width:0.50pt;"/>
<line x1="74.01cm" y1="14.63cm" x2="74.34cm" y2="14.63cm" style="stroke:#000000; stroke-width:0.50pt;"/>
<line x1="74.01cm" y1="16.33cm" x2="74.34cm" y2="16.33cm" style="stroke:#000000; stroke-width:0.50pt;"/>
<line x1="74.01cm" y1="18.03cm" x2="74.34cm" y2="18.03cm" style="stroke:#000000; stroke-width:0.50pt;"/>
<line x1="74.01cm" y1="19.73cm" x2="74.34cm" y2="19.73cm" style="stroke:#000000; stroke-width:0.50pt;"/>
<line x1="74.01cm" y1="21.43cm" x2="74.34cm" y2="21.43cm" style="stroke:#000000; stroke-width:0.50pt;"/>
<rect x="85.08cm" y="4.55cm" width="8.43cm" height="0.63cm" style="fill:#ffffff; stroke:#000000; stroke-width:0.500000;"/>
<line x1="93.52cm" y1="4.87cm" x2="94.51cm" y2="4.87cm" style="stroke:#000000; stroke-width:0.50pt;"/>
<line x1="94.51cm" y1="3.37cm" x2="94.51cm" y2="13.41cm" style="stroke:#000000; stroke-width:0.50pt;"/>
<line x1="94.51cm" y1="3.37cm" x2="94.84cm" y2="3.37cm" style="stroke:#000000; stroke-width:0.50pt;"/>
<line x1="94.51cm" y1="8.31cm" x2="94.84cm" y2="8.31cm" style="stroke:#000000; stroke-width:0.50pt;"/>
<line x1="94.51cm" y1="10.01cm" x2="94.84cm" y2="10.01cm" style="stroke:#000000; stroke-width:0.50pt;"/>
<line x1="94.51cm" y1="11.71cm" x2="94.84cm" y2="11.71cm" style="stroke:#000000; stroke-width:0.50pt;"/>
<line x1="94.51cm" y1="13.41cm" x2="94.84cm" y2="13.41cm" style="stroke:#000000; stroke-width:0.50pt;"/>
<rect x="95.33cm" y="4.55cm" width="8.43cm" height="0.63cm" style="fill:#ffffff; stroke:#000000; stroke-width:0.500000;"/>
<line x1="103.77cm" y1="4.87cm" x2="104.76cm" y2="4.87cm" style="stroke:#000000; stroke-width:0.50pt;"/>
<line x1="104.76cm" y1="3.37cm" x2="104.76cm" y2="8.31cm" style="stroke:#000000; stroke-width:0.50pt;"/>
<line x1="104.76cm" y1="3.37cm" x2="105.09cm" y2="3.37cm" style="stroke:#000000; stroke-width:0.50pt;"/>
<line x1="104.76cm" y1="8.31cm" x2="105.09cm" y2="8.31cm" style="stroke:#000000; stroke-width:0.50pt;"/>
<rect x="105.59cm" y="4.55cm" width="8.43cm" height="0.63cm" style="fill:#ffffff; stroke:#000000; stroke-width:0.500000;"/>
<rect x="74.98cm" y="5.26cm" width="8.43cm" height="1.59cm" style="fill:#808080; stroke:#808080; stroke-width:1;"/>
<rect x="74.83cm" y="5.11cm" width="8.43cm" height="1.59cm" style="fill:#ffffff; stroke:#000000; stroke-width:0.500000;"/>
<rect x="3.22cm" y="5.73cm" width="8.43cm" height="1.59cm" style="fill:#808080; stroke:#808080; stroke-width:1;"/>
<rect x="3.07cm" y="5.58cm" width="8.43cm" height="1.59cm" style="fill:#ffffff; stroke:#000000; stroke-width:0.500000;"/>
<rect x="13.47cm" y="5.73cm" width="8.43cm" height="1.11cm" style="fill:#808080; stroke:#808080; stroke-width:1;"/>
<rect x="13.32cm" y="5.58cm" width="8.43cm" height="1.11cm" style="fill:#ffffff; stroke:#000000; stroke-width:0.500000;"/>
<rect x="23.72cm" y="5.73cm" width="8.43cm" height="1.11cm" style="fill:#808080; stroke:#808080; stroke-width:1;"/>
<rect x="23.57cm" y="5.58cm" width="8.43cm" height="1.11cm" style="fill:#ffffff; stroke:#000000; stroke-width:0.500000;"/>
<rect x="33.97cm" y="5.73cm" width="8.43cm" height="1.11cm" style="fill:#808080; stroke:#808080; stroke-width:1;"/>
<rect x="33.82cm" y="5.58cm" width="8.43cm" height="1.11cm" style="fill:#ffffff; stroke:#000000; stroke-width:0.500000;"/>
<rect x="44.23cm" y="5.73cm" width="8.43cm" height="1.11cm" style="fill:#808080; stroke:#808080; stroke-width:1;"/>
<rect x="44.08cm" y="5.58cm" width="8.43cm" height="1.11cm" style="fill:#ffffff; stroke:#000000; stroke-width:0.500000;"/>
<rect x="54.48cm" y="5.73cm" width="8.43cm" height="1.59cm" style="fill:#808080; stroke:#808080; stroke-width:1;"/>
<rect x="54.33cm" y="5.58cm" width="8.43cm" height="1.59cm" style="fill:#ffffff; stroke:#000000; stroke-width:0.500000;"/>
<rect x="64.73cm" y="5.73cm" width="8.43cm" height="1.59cm" style="fill:#808080; stroke:#808080; stroke-width:1;"/>
<rect x="64.58cm" y="5.58cm" width="8.43cm" height="1.59cm" style="fill:#ffffff; stroke:#000000; stroke-width:0.500000;"/>
<rect x="85.23cm" y="5.73cm" width="8.43cm" height="1.11cm" style="fill:#808080; stroke:#808080; stroke-width:1;"/>
<rect x="85.08cm" y="5.58cm" width="8.43cm" height="1.11cm" style="fill:#ffffff; stroke:#000000; stroke-width:0.500000;"/>
<rect x="95.48cm" y="5.73cm" width="8.43cm" height="1.59cm" style="fill:#808080; stroke:#808080; stroke-width:1;"/>
<rect x="95.33cm" y="5.58cm" width="8.43cm" height="1.59cm" style="fill:#ffffff; stroke:#000000; stroke-width:0.500000;"/>
<rect x="105.74cm" y="5.73cm" width="8.43cm" height="1.59cm" style="fill:#808080; stroke:#808080; stroke-width:1;"/>
<rect x="105.59cm" y="5.58cm" width="8.43cm" height="1.59cm" style="fill:#ffffff; stroke:#000000; stroke-width:0.500000;"/>
<rect x="44.57cm" y="7.08cm" width="7.94cm" height="0.63cm" style="fill:#ffffff; stroke:#000000; stroke-width:0.500000;"/>
<rect x="84.74cm" y="7.43cm" width="8.93cm" height="1.11cm" style="fill:#808080; stroke:#808080; stroke-width:1;"/>
<rect x="84.59cm" y="7.28cm" width="8.93cm" height="1.11cm" style="fill:#ffffff; stroke:#000000; stroke-width:0.500000;"/>
<rect x="74.49cm" y="7.43cm" width="8.93cm" height="1.11cm" style="fill:#808080; stroke:#808080; stroke-width:1;"/>
<rect x="74.34cm" y="7.28cm" width="8.93cm" height="1.11cm" style="fill:#ffffff; stroke:#000000; stroke-width:0.500000;"/>
<rect x="33.48cm" y="7.43cm" width="8.93cm" height="1.11cm" style="fill:#808080; stroke:#808080; stroke-width:1;"/>
<rect x="33.33cm" y="7.28cm" width="8.93cm" height="1.11cm" style="fill:#ffffff; stroke:#000000; stroke-width:0.500000;"/>
<rect x="54.33cm" y="7.56cm" width="8.43cm" height="0.63cm" style="fill:#ffffff; stroke:#000000; stroke-width:0.500000;"/>
<rect x="3.07cm" y="7.68cm" width="8.43cm" height="0.63cm" style="fill:#ffffff; stroke:#000000; stroke-width:0.500000;"/>
<line x1="11.50cm" y1="8.00cm" x2="12.50cm" y2="8.00cm" style="stroke:#000000; stroke-width:0.50pt;"/>
<line x1="12.50cm" y1="8.00cm" x2="12.50cm" y2="8.23cm" style="stroke:#000000; stroke-width:0.50pt;"/>
<line x1="12.50cm" y1="8.23cm" x2="12.83cm" y2="8.23cm" style="stroke:#000000; stroke-width:0.50pt;"/>
<rect x="12.98cm" y="7.83cm" width="8.93cm" height="1.11cm" style="fill:#808080; stroke:#808080; stroke-width:1;"/>
<rect x="12.83cm" y="7.68cm" width="8.93cm" height="1.11cm" style="fill:#ffffff; stroke:#000000; stroke-width:0.500000;"/>
<rect x="105.24cm" y="7.91cm" width="8.93cm" height="1.11cm" style="fill:#808080; stroke:#808080; stroke-width:1;"/>
<rect x="105.09cm" y="7.76cm" width="8.93cm" height="1.11cm" style="fill:#ffffff; stroke:#000000; stroke-width:0.500000;"/>
<rect x="94.99cm" y="7.91cm" width="8.93cm" height="1.11cm" style="fill:#808080; stroke:#808080; stroke-width:1;"/>
<rect x="94.84cm" y="7.76cm" width="8.93cm" height="1.11cm" style="fill:#ffffff; stroke:#000000; stroke-width:0.500000;"/>
<rect x="64.24cm" y="7.91cm" width="8.93cm" height="1.11cm" style="fill:#808080; stroke:#808080; stroke-width:1;"/>
<rect x="64.09cm" y="7.76cm" width="8.93cm" height="1.11cm" style="fill:#ffffff; stroke:#000000; stroke-width:0.500000;"/>
<rect x="44.72cm" y="8.27cm" width="7.94cm" height="1.11cm" style="fill:#808080; stroke:#808080; stroke-width:1;"/>
<rect x="44.57cm" y="8.12cm" width="7.94cm" height="1.11cm" style="fill:#ffffff; stroke:#000000; stroke-width:0.500000;"/>
<rect x="54.48cm" y="8.74cm" width="8.43cm" height="1.59cm" style="fill:#808080; stroke:#808080; stroke-width:1;"/>
<rect x="54.33cm" y="8.59cm" width="8.43cm" height="1.59cm" style="fill:#ffffff; stroke:#000000; stroke-width:0.500000;"/>
<rect x="3.22cm" y="8.86cm" width="8.43cm" height="1.11cm" style="fill:#808080; stroke:#808080; stroke-width:1;"/>
<rect x="3.07cm" y="8.71cm" width="8.43cm" height="1.11cm" style="fill:#ffffff; stroke:#000000; stroke-width:0.500000;"/>
<rect x="74.49cm" y="9.13cm" width="8.93cm" height="1.11cm" style="fill:#808080; stroke:#808080; stroke-width:1;"/>
<rect x="74.34cm" y="8.98cm" width="8.93cm" height="1.11cm" style="fill:#ffffff; stroke:#000000; stroke-width:0.500000;"/>
<rect x="33.48cm" y="9.13cm" width="8.93cm" height="1.11cm" style="fill:#808080; stroke:#808080; stroke-width:1;"/>
<rect x="33.33cm" y="8.98cm" width="8.93cm" height="1.11cm" style="fill:#ffffff; stroke:#000000; stroke-width:0.500000;"/>
<rect x="94.99cm" y="9.61cm" width="8.93cm" height="1.11cm" style="fill:#808080; stroke:#808080; stroke-width:1;"/>
<rect x="94.84cm" y="9.46cm" width="8.93cm" height="1.11cm" style="fill:#ffffff; stroke:#000000; stroke-width:0.500000;"/>
<rect x="64.24cm" y="9.61cm" width="8.93cm" height="1.11cm" style="fill:#808080; stroke:#808080; stroke-width:1;"/>
<rect x="64.09cm" y="9.46cm" width="8.93cm" height="1.11cm" style="fill:#ffffff; stroke:#000000; stroke-width:0.500000;"/>
<rect x="43.73cm" y="9.96cm" width="8.93cm" height="1.11cm" style="fill:#808080; stroke:#808080; stroke-width:1;"/>
<rect x="43.58cm" y="9.81cm" width="8.93cm" height="1.11cm" style="fill:#ffffff; stroke:#000000; stroke-width:0.500000;"/>
<rect x="74.49cm" y="10.83cm" width="8.93cm" height="1.11cm" style="fill:#808080; stroke:#808080; stroke-width:1;"/>
<rect x="74.34cm" y="10.68cm" width="8.93cm" height="1.11cm" style="fill:#ffffff; stroke:#000000; stroke-width:0.500000;"/>
<rect x="33.48cm" y="10.83cm" width="8.93cm" height="1.11cm" style="fill:#808080; stroke:#808080; stroke-width:1;"/>
<rect x="33.33cm" y="10.68cm" width="8.93cm" height="1.11cm" style="fill:#ffffff; stroke:#000000; stroke-width:0.500000;"/>
<rect x="53.98cm" y="10.92cm" width="8.93cm" height="1.11cm" style="fill:#808080; stroke:#808080; stroke-width:1;"/>
<rect x="53.83cm" y="10.77cm" width="8.93cm" height="1.11cm" style="fill:#ffffff; stroke:#000000; stroke-width:0.500000;"/>
<rect x="94.99cm" y="11.31cm" width="8.93cm" height="1.11cm" style="fill:#808080; stroke:#808080; stroke-width:1;"/>
<rect x="94.84cm" y="11.16cm" width="8.93cm" height="1.11cm" style="fill:#ffffff; stroke:#000000; stroke-width:0.500000;"/>
<rect x="64.24cm" y="11.31cm" width="8.93cm" height="1.11cm" style="fill:#808080; stroke:#808080; stroke-width:1;"/>
<rect x="64.09cm" y="11.16cm" width="8.93cm" height="1.11cm" style="fill:#ffffff; stroke:#000000; stroke-width:0.500000;"/>
<rect x="74.49cm" y="12.53cm" width="8.93cm" height="1.11cm" style="fill:#808080; stroke:#808080; stroke-width:1;"/>
<rect x="74.34cm" y="12.38cm" width="8.93cm" height="1.11cm" style="fill:#ffffff; stroke:#000000; stroke-width:0.500000;"/>
<rect x="33.48cm" y="12.53cm" width="8.93cm" height="1.11cm" style="fill:#808080; stroke:#808080; stroke-width:1;"/>
<rect x="33.33cm" y="12.38cm" width="8.93cm" height="1.11cm" style="fill:#ffffff; stroke:#000000; stroke-width:0.500000;"/>
<rect x="53.98cm" y="12.62cm" width="8.93cm" height="1.11cm" style="fill:#808080; stroke:#808080; stroke-width:1;"/>
<rect x="53.83cm" y="12.47cm" width="8.93cm" height="1.11cm" style="fill:#ffffff; stroke:#000000; stroke-width:0.500000;"/>
<rect x="94.99cm" y="13.00cm" width="8.93cm" height="1.11cm" style="fill:#808080; stroke:#808080; stroke-width:1;"/>
<rect x="94.84cm" y="12.85cm" width="8.93cm" height="1.11cm" style="fill:#ffffff; stroke:#000000; stroke-width:0.500000;"/>
<rect x="74.49cm" y="14.23cm" width="8.93cm" height="1.11cm" style="fill:#808080; stroke:#808080; stroke-width:1;"/>
<rect x="74.34cm" y="14.08cm" width="8.93cm" height="1.11cm" style="fill:#ffffff; stroke:#000000; stroke-width:0.500000;"/>
<rect x="53.98cm" y="14.31cm" width="8.93cm" height="1.11cm" style="fill:#808080; stroke:#808080; stroke-width:1;"/>
<rect x="53.83cm" y="14.16cm" width="8.93cm" height="1.11cm" style="fill:#ffffff; stroke:#000000; stroke-width:0.500000;"/>
<rect x="74.49cm" y="15.93cm" width="8.93cm" height="1.11cm" style="fill:#808080; stroke:#808080; stroke-width:1;"/>
<rect x="74.34cm" y="15.78cm" width="8.93cm" height="1.11cm" style="fill:#ffffff; stroke:#000000; stroke-width:0.500000;"/>
<rect x="53.98cm" y="16.01cm" width="8.93cm" height="1.11cm" style="fill:#808080; stroke:#808080; stroke-width:1;"/>
<rect x="53.83cm" y="15.86cm" width="8.93cm" height="1.11cm" style="fill:#ffffff; stroke:#000000; stroke-width:0.500000;"/>
<rect x="74.49cm" y="17.62cm" width="8.93cm" height="1.11cm" style="fill:#808080; stroke:#808080; stroke-width:1;"/>
<rect x="74.34cm" y="17.47cm" width="8.93cm" height="1.11cm" style="fill:#ffffff; stroke:#000000; stroke-width:0.500000;"/>
<rect x="53.98cm" y="17.71cm" width="8.93cm" height="1.11cm" style="fill:#808080; stroke:#808080; stroke-width:1;"/>
<rect x="53.83cm" y="17.56cm" width="8.93cm" height="1.11cm" style="fill:#ffffff; stroke:#000000; stroke-width:0.500000;"/>
<rect x="74.49cm" y="19.32cm" width="8.93cm" height="1.11cm" style="fill:#808080; stroke:#808080; stroke-width:1;"/>
<rect x="74.34cm" y="19.17cm" width="8.93cm" height="1.11cm" style="fill:#ffffff; stroke:#000000; stroke-width:0.500000;"/>
<rect x="53.98cm" y="19.41cm" width="8.93cm" height="1.11cm" style="fill:#808080; stroke:#808080; stroke-width:1;"/>
<rect x="53.83cm" y="19.26cm" width="8.93cm" height="1.11cm" style="fill:#ffffff; stroke:#000000; stroke-width:0.500000;"/>
<rect x="74.49cm" y="21.02cm" width="8.93cm" height="1.11cm" style="fill:#808080; stroke:#808080; stroke-width:1;"/>
<rect x="74.34cm" y="20.87cm" width="8.93cm" height="1.11cm" style="fill:#ffffff; stroke:#000000; stroke-width:0.500000;"/>
<rect x="53.98cm" y="21.11cm" width="8.93cm" height="1.11cm" style="fill:#808080; stroke:#808080; stroke-width:1;"/>
<rect x="53.83cm" y="20.96cm" width="8.93cm" height="1.11cm" style="fill:#ffffff; stroke:#000000; stroke-width:0.500000;"/>
<text x="2.93cm" y="3.06cm" style="fill:#000000;  font-weight:bold; font-size:9; font-family:sans-serif;">Lanier, Nicholas (Frenchman, musician - 1571)</text>
<text x="2.93cm" y="3.45cm" style="fill:#000000;  font-weight:bold; font-size:9; font-family:sans-serif;">b.  </text>
<text x="2.93cm" y="3.83cm" style="fill:#000000;  font-weight:bold; font-size:9; font-family:sans-serif;">d. 1612 at Greenwich, England</text>
<text x="13.18cm" y="3.06cm" style="fill:#000000;  font-weight:bold; font-size:9; font-family:sans-serif;">Lanier, Clement</text>
<text x="13.18cm" y="3.45cm" style="fill:#000000;  font-weight:bold; font-size:9; font-family:sans-serif;">b.  </text>
<text x="13.18cm" y="3.83cm" style="fill:#000000;  font-weight:bold; font-size:9; font-family:sans-serif;">d. 1661-11-05 at Greenwich, England</text>
<text x="23.43cm" y="3.06cm" style="fill:#000000;  font-weight:bold; font-size:9; font-family:sans-serif;">Lanier, John</text>
<text x="23.43cm" y="3.45cm" style="fill:#000000;  font-weight:bold; font-size:9; font-family:sans-serif;">b.  at Greenwich, England</text>
<text x="23.43cm" y="3.83cm" style="fill:#000000;  font-weight:bold; font-size:9; font-family:sans-serif;">d. 1719 at Prince George Co., VA</text>
<text x="33.68cm" y="3.06cm" style="fill:#000000;  font-weight:bold; font-size:9; font-family:sans-serif;">Lanier, Sampson</text>
<text x="33.68cm" y="3.45cm" style="fill:#000000;  font-weight:bold; font-size:9; font-family:sans-serif;">b. 1682 </text>
<text x="33.68cm" y="3.83cm" style="fill:#000000;  font-weight:bold; font-size:9; font-family:sans-serif;">d. 1743 at Brunswick Co., Va.</text>
<text x="43.93cm" y="3.06cm" style="fill:#000000;  font-weight:bold; font-size:9; font-family:sans-serif;">Lanier, Sampson</text>
<text x="43.93cm" y="3.45cm" style="fill:#000000;  font-weight:bold; font-size:9; font-family:sans-serif;">b. 1712 at Brunswick Co., Va.</text>
<text x="43.93cm" y="3.83cm" style="fill:#000000;  font-weight:bold; font-size:9; font-family:sans-serif;">d. 1759 at Brunswick Co., Va.</text>
<text x="54.19cm" y="3.06cm" style="fill:#000000;  font-weight:bold; font-size:9; font-family:sans-serif;">Lanier, Ann C. (probably Chamberlayne)</text>
<text x="54.19cm" y="3.45cm" style="fill:#000000;  font-weight:bold; font-size:9; font-family:sans-serif;">b. 1752 at Brunswick Co., Va.</text>
<text x="54.19cm" y="3.83cm" style="fill:#000000;  font-weight:bold; font-size:9; font-family:sans-serif;">d. 1833 at Granville Co., NC</text>
<text x="64.44cm" y="3.06cm" style="fill:#000000;  font-weight:bold; font-size:9; font-family:sans-serif;">Moore, William</text>
<text x="64.44cm" y="3.45cm" style="fill:#000000;  font-weight:bold; font-size:9; font-family:sans-serif;">b. 1775-07-04 at Sussex Co. Va.</text>
<text x="64.44cm" y="3.83cm" style="fill:#000000;  font-weight:bold; font-size:9; font-family:sans-serif;">d. 1829 at Franklin Co., NC</text>
<text x="74.69cm" y="3.02cm" style="fill:#000000;  font-weight:bold; font-size:9; font-family:sans-serif;">Moore, Joseph Jefferson</text>
<text x="74.69cm" y="3.40cm" style="fill:#000000;  font-weight:bold; font-size:9; font-family:sans-serif;">b. 1796-10-18 </text>
<text x="84.94cm" y="3.06cm" style="fill:#000000;  font-weight:bold; font-size:9; font-family:sans-serif;">Moore, Elizabeth Martin</text>
<text x="84.94cm" y="3.45cm" style="fill:#000000;  font-weight:bold; font-size:9; font-family:sans-serif;">b. 1818 at Franklin Co., NC</text>
<text x="84.94cm" y="3.83cm" style="fill:#000000;  font-weight:bold; font-size:9; font-family:sans-serif;">d. 1899-02-18 at Franklin Co., NC</text>
<text x="95.19cm" y="3.06cm" style="fill:#000000;  font-weight:bold; font-size:9; font-family:sans-serif;">Ward, Charles Johnson</text>
<text x="95.19cm" y="3.45cm" style="fill:#000000;  font-weight:bold; font-size:9; font-family:sans-serif;">b. 1851-12-02 at Franklin Co., NC</text>
<text x="95.19cm" y="3.83cm" style="fill:#000000;  font-weight:bold; font-size:9; font-family:sans-serif;">d. 1823-03-01 at Wake Forest, NC</text>
<text x="105.45cm" y="3.06cm" style="fill:#000000;  font-weight:bold; font-size:9; font-family:sans-serif;">Ward, Grace Martin</text>
<text x="105.45cm" y="3.45cm" style="fill:#000000;  font-weight:bold; font-size:9; font-family:sans-serif;">b. 1888-11-29 at Granville Co., NC</text>
<text x="105.45cm" y="3.83cm" style="fill:#000000;  font-weight:bold; font-size:9; font-family:sans-serif;">d. 1949-12-17 at Black Mountain, NC</text>
<text x="75.18cm" y="4.47cm" style="fill:#000000;  font-size:9; font-family:sans-serif;">m. 1816-03-14 Franklin Co., NC</text>
<text x="3.42cm" y="4.95cm" style="fill:#000000;  font-size:9; font-family:sans-serif;">m. 1570/1-02-13 (Julian) All Hallows Barking, London</text>
<text x="13.67cm" y="4.95cm" style="fill:#000000;  font-size:9; font-family:sans-serif;">m.  </text>
<text x="23.93cm" y="4.95cm" style="fill:#000000;  font-size:9; font-family:sans-serif;">m.  </text>
<text x="34.18cm" y="4.95cm" style="fill:#000000;  font-size:9; font-family:sans-serif;">m. 1706 </text>
<text x="44.43cm" y="4.95cm" style="fill:#000000;  font-size:9; font-family:sans-serif;">m. 1737 </text>
<text x="54.68cm" y="4.95cm" style="fill:#000000;  font-size:9; font-family:sans-serif;">m.  </text>
<text x="64.93cm" y="4.95cm" style="fill:#000000;  font-size:9; font-family:sans-serif;">m. 1795-12-31 </text>
<text x="85.44cm" y="4.95cm" style="fill:#000000;  font-size:9; font-family:sans-serif;">m. 1834-03-19 Franklin Co., NC</text>
<text x="95.69cm" y="4.95cm" style="fill:#000000;  font-size:9; font-family:sans-serif;">m. 1883-12-12 Granville Co., NC</text>
<text x="105.94cm" y="4.95cm" style="fill:#000000;  font-size:9; font-family:sans-serif;">m. 1913-01-15 Franklin Co., NC</text>
<text x="75.18cm" y="5.60cm" style="fill:#000000;  font-size:9; font-family:sans-serif;">Jones, Harriet</text>
<text x="75.18cm" y="5.98cm" style="fill:#000000;  font-size:9; font-family:sans-serif;">b. 1801 </text>
<text x="75.18cm" y="6.36cm" style="fill:#000000;  font-size:9; font-family:sans-serif;">d. 1859 at Franklin Co., NC</text>
<text x="3.42cm" y="6.07cm" style="fill:#000000;  font-size:9; font-family:sans-serif;">Bassano, Lucretia</text>
<text x="3.42cm" y="6.45cm" style="fill:#000000;  font-size:9; font-family:sans-serif;">b.  </text>
<text x="3.42cm" y="6.83cm" style="fill:#000000;  font-size:9; font-family:sans-serif;">d. 1633/4-01-04 (Julian) at Greenwich, England</text>
<text x="13.67cm" y="6.02cm" style="fill:#000000;  font-size:9; font-family:sans-serif;"></text>
<text x="13.67cm" y="6.41cm" style="fill:#000000;  font-size:9; font-family:sans-serif;">b.  </text>
<text x="23.93cm" y="6.02cm" style="fill:#000000;  font-size:9; font-family:sans-serif;"></text>
<text x="23.93cm" y="6.41cm" style="fill:#000000;  font-size:9; font-family:sans-serif;">b.  </text>
<text x="34.18cm" y="6.02cm" style="fill:#000000;  font-size:9; font-family:sans-serif;">Washington, Elizabeth</text>
<text x="34.18cm" y="6.41cm" style="fill:#000000;  font-size:9; font-family:sans-serif;">b. 1692 </text>
<text x="44.43cm" y="6.02cm" style="fill:#000000;  font-size:9; font-family:sans-serif;">Chamberlayne, Elizabeth</text>
<text x="44.43cm" y="6.41cm" style="fill:#000000;  font-size:9; font-family:sans-serif;">b.  </text>
<text x="54.68cm" y="6.07cm" style="fill:#000000;  font-size:9; font-family:sans-serif;">Moore, William</text>
<text x="54.68cm" y="6.45cm" style="fill:#000000;  font-size:9; font-family:sans-serif;">b. 1744/5-02-27 (Julian) at Sussex Co. Va.</text>
<text x="54.68cm" y="6.83cm" style="fill:#000000;  font-size:9; font-family:sans-serif;">d. 1781 at Sussex Co. Va.</text>
<text x="64.93cm" y="6.07cm" style="fill:#000000;  font-size:9; font-family:sans-serif;">Martin, Amy</text>
<text x="64.93cm" y="6.45cm" style="fill:#000000;  font-size:9; font-family:sans-serif;">b.  </text>
<text x="64.93cm" y="6.83cm" style="fill:#000000;  font-size:9; font-family:sans-serif;">d. 1838 at Franklin Co., NC</text>
<text x="85.44cm" y="6.02cm" style="fill:#000000;  font-size:9; font-family:sans-serif;">Ward, Joseph John</text>
<text x="85.44cm" y="6.41cm" style="fill:#000000;  font-size:9; font-family:sans-serif;">b. 1807 </text>
<text x="95.69cm" y="6.07cm" style="fill:#000000;  font-size:9; font-family:sans-serif;">Hicks, Pamelia (Meta) B.</text>
<text x="95.69cm" y="6.45cm" style="fill:#000000;  font-size:9; font-family:sans-serif;">b. 1852-01-30 at Granville Co., NC</text>
<text x="95.69cm" y="6.83cm" style="fill:#000000;  font-size:9; font-family:sans-serif;">d. 1894-09-23 at Franklin Co., NC</text>
<text x="105.94cm" y="6.07cm" style="fill:#000000;  font-size:9; font-family:sans-serif;">White, Robert Bruce</text>
<text x="105.94cm" y="6.45cm" style="fill:#000000;  font-size:9; font-family:sans-serif;">b. 1872-08-19 at Wake County, NC</text>
<text x="105.94cm" y="6.83cm" style="fill:#000000;  font-size:9; font-family:sans-serif;">d. 1944-11-28 at Wake Forest, NC</text>
<text x="44.92cm" y="7.48cm" style="fill:#000000;  font-size:9; font-family:sans-serif;">m. 1760 </text>
<text x="84.94cm" y="7.72cm" style="fill:#000000;  font-weight:bold; font-size:9; font-family:sans-serif;">Moore, Martha</text>
<text x="84.94cm" y="8.10cm" style="fill:#000000;  font-weight:bold; font-size:9; font-family:sans-serif;">b.  </text>
<text x="74.69cm" y="7.72cm" style="fill:#000000;  font-weight:bold; font-size:9; font-family:sans-serif;">Moore, Martha</text>
<text x="74.69cm" y="8.10cm" style="fill:#000000;  font-weight:bold; font-size:9; font-family:sans-serif;">b. 1798-08-10 </text>
<text x="33.68cm" y="7.72cm" style="fill:#000000;  font-weight:bold; font-size:9; font-family:sans-serif;">Lanier, Robert</text>
<text x="33.68cm" y="8.10cm" style="fill:#000000;  font-weight:bold; font-size:9; font-family:sans-serif;">b.  </text>
<text x="54.68cm" y="7.95cm" style="fill:#000000;  font-size:9; font-family:sans-serif;">m. 1781-11-07 Sussex Co. Va.</text>
<text x="3.42cm" y="8.07cm" style="fill:#000000;  font-size:9; font-family:sans-serif;">m.  </text>
<text x="13.18cm" y="8.12cm" style="fill:#000000;  font-weight:bold; font-size:9; font-family:sans-serif;">Lanier, John (father of Nicholas, court musician)</text>
<text x="13.18cm" y="8.50cm" style="fill:#000000;  font-weight:bold; font-size:9; font-family:sans-serif;">b.  </text>
<text x="105.45cm" y="8.20cm" style="fill:#000000;  font-weight:bold; font-size:9; font-family:sans-serif;">Ward, Patty (married Pratt)</text>
<text x="105.45cm" y="8.58cm" style="fill:#000000;  font-weight:bold; font-size:9; font-family:sans-serif;">b.  </text>
<text x="95.19cm" y="8.20cm" style="fill:#000000;  font-weight:bold; font-size:9; font-family:sans-serif;">Ward, Dallas T.</text>
<text x="95.19cm" y="8.58cm" style="fill:#000000;  font-weight:bold; font-size:9; font-family:sans-serif;">b.  </text>
<text x="64.44cm" y="8.20cm" style="fill:#000000;  font-weight:bold; font-size:9; font-family:sans-serif;">Moore, Nancy</text>
<text x="64.44cm" y="8.58cm" style="fill:#000000;  font-weight:bold; font-size:9; font-family:sans-serif;">b.  </text>
<text x="44.92cm" y="8.56cm" style="fill:#000000;  font-size:9; font-family:sans-serif;">Smith, Cuthbert</text>
<text x="44.92cm" y="8.94cm" style="fill:#000000;  font-size:9; font-family:sans-serif;">b.  </text>
<text x="54.68cm" y="9.08cm" style="fill:#000000;  font-size:9; font-family:sans-serif;">Vaughn, James (possibly Capt. James Vaughn Rev. War)</text>
<text x="54.68cm" y="9.46cm" style="fill:#000000;  font-size:9; font-family:sans-serif;">b.  </text>
<text x="54.68cm" y="9.84cm" style="fill:#000000;  font-size:9; font-family:sans-serif;">d. 1816 at Granville Co., NC</text>
<text x="3.42cm" y="9.15cm" style="fill:#000000;  font-size:9; font-family:sans-serif;"></text>
<text x="3.42cm" y="9.53cm" style="fill:#000000;  font-size:9; font-family:sans-serif;">b.  </text>
<text x="74.69cm" y="9.42cm" style="fill:#000000;  font-weight:bold; font-size:9; font-family:sans-serif;">Moore, William Martin</text>
<text x="74.69cm" y="9.80cm" style="fill:#000000;  font-weight:bold; font-size:9; font-family:sans-serif;">b. 1800-05-18 </text>
<text x="33.68cm" y="9.42cm" style="fill:#000000;  font-weight:bold; font-size:9; font-family:sans-serif;">Lanier, John</text>
<text x="33.68cm" y="9.80cm" style="fill:#000000;  font-weight:bold; font-size:9; font-family:sans-serif;">b.  </text>
<text x="95.19cm" y="9.90cm" style="fill:#000000;  font-weight:bold; font-size:9; font-family:sans-serif;">Ward, E. M.</text>
<text x="95.19cm" y="10.28cm" style="fill:#000000;  font-weight:bold; font-size:9; font-family:sans-serif;">b.  </text>
<text x="64.44cm" y="9.90cm" style="fill:#000000;  font-weight:bold; font-size:9; font-family:sans-serif;">Moore, Patty</text>
<text x="64.44cm" y="10.28cm" style="fill:#000000;  font-weight:bold; font-size:9; font-family:sans-serif;">b.  </text>
<text x="43.93cm" y="10.26cm" style="fill:#000000;  font-weight:bold; font-size:9; font-family:sans-serif;">Lanier, James (ancestor of Sidney Lanier, poet)</text>
<text x="43.93cm" y="10.64cm" style="fill:#000000;  font-weight:bold; font-size:9; font-family:sans-serif;">b.  </text>
<text x="74.69cm" y="11.12cm" style="fill:#000000;  font-weight:bold; font-size:9; font-family:sans-serif;">Moore, James Vaughn</text>
<text x="74.69cm" y="11.50cm" style="fill:#000000;  font-weight:bold; font-size:9; font-family:sans-serif;">b. 1800-12-12 </text>
<text x="33.68cm" y="11.12cm" style="fill:#000000;  font-weight:bold; font-size:9; font-family:sans-serif;">Lanier, Sarah (married Brewer)</text>
<text x="33.68cm" y="11.50cm" style="fill:#000000;  font-weight:bold; font-size:9; font-family:sans-serif;">b.  </text>
<text x="54.19cm" y="11.21cm" style="fill:#000000;  font-weight:bold; font-size:9; font-family:sans-serif;">Lanier, Burwell</text>
<text x="54.19cm" y="11.59cm" style="fill:#000000;  font-weight:bold; font-size:9; font-family:sans-serif;">b. 1737 </text>
<text x="95.19cm" y="11.60cm" style="fill:#000000;  font-weight:bold; font-size:9; font-family:sans-serif;">Ward, N. M. (married McGhee)</text>
<text x="95.19cm" y="11.98cm" style="fill:#000000;  font-weight:bold; font-size:9; font-family:sans-serif;">b.  </text>
<text x="64.44cm" y="11.60cm" style="fill:#000000;  font-weight:bold; font-size:9; font-family:sans-serif;">Moore, Sally</text>
<text x="64.44cm" y="11.98cm" style="fill:#000000;  font-weight:bold; font-size:9; font-family:sans-serif;">b.  </text>
<text x="74.69cm" y="12.82cm" style="fill:#000000;  font-weight:bold; font-size:9; font-family:sans-serif;">Moore, Henry Martin</text>
<text x="74.69cm" y="13.20cm" style="fill:#000000;  font-weight:bold; font-size:9; font-family:sans-serif;">b. 1804-03-12 </text>
<text x="33.68cm" y="12.82cm" style="fill:#000000;  font-weight:bold; font-size:9; font-family:sans-serif;">Lanier, Nicholas</text>
<text x="33.68cm" y="13.20cm" style="fill:#000000;  font-weight:bold; font-size:9; font-family:sans-serif;">b.  </text>
<text x="54.19cm" y="12.91cm" style="fill:#000000;  font-weight:bold; font-size:9; font-family:sans-serif;">Lanier, Buckner</text>
<text x="54.19cm" y="13.29cm" style="fill:#000000;  font-weight:bold; font-size:9; font-family:sans-serif;">b. 1740 </text>
<text x="95.19cm" y="13.30cm" style="fill:#000000;  font-weight:bold; font-size:9; font-family:sans-serif;">Ward, C. (married Pritchard)</text>
<text x="95.19cm" y="13.68cm" style="fill:#000000;  font-weight:bold; font-size:9; font-family:sans-serif;">b.  </text>
<text x="74.69cm" y="14.52cm" style="fill:#000000;  font-weight:bold; font-size:9; font-family:sans-serif;">Moore, Ann Lanier</text>
<text x="74.69cm" y="14.90cm" style="fill:#000000;  font-weight:bold; font-size:9; font-family:sans-serif;">b. 1807-09-05 </text>
<text x="54.19cm" y="14.61cm" style="fill:#000000;  font-weight:bold; font-size:9; font-family:sans-serif;">Lanier, Rebecca</text>
<text x="54.19cm" y="14.99cm" style="fill:#000000;  font-weight:bold; font-size:9; font-family:sans-serif;">b. 1744 </text>
<text x="74.69cm" y="16.22cm" style="fill:#000000;  font-weight:bold; font-size:9; font-family:sans-serif;">Moore, Marth Maria Martin</text>
<text x="74.69cm" y="16.60cm" style="fill:#000000;  font-weight:bold; font-size:9; font-family:sans-serif;">b. 1810-05-07 </text>
<text x="54.19cm" y="16.30cm" style="fill:#000000;  font-weight:bold; font-size:9; font-family:sans-serif;">Lanier, Winifred</text>
<text x="54.19cm" y="16.68cm" style="fill:#000000;  font-weight:bold; font-size:9; font-family:sans-serif;">b. 1747 </text>
<text x="74.69cm" y="17.92cm" style="fill:#000000;  font-weight:bold; font-size:9; font-family:sans-serif;">Moore, Alexander Somverville</text>
<text x="74.69cm" y="18.30cm" style="fill:#000000;  font-weight:bold; font-size:9; font-family:sans-serif;">b. 1812-02-12 </text>
<text x="54.19cm" y="18.00cm" style="fill:#000000;  font-weight:bold; font-size:9; font-family:sans-serif;">Lanier, Agnes</text>
<text x="54.19cm" y="18.38cm" style="fill:#000000;  font-weight:bold; font-size:9; font-family:sans-serif;">b.  </text>
<text x="74.69cm" y="19.61cm" style="fill:#000000;  font-weight:bold; font-size:9; font-family:sans-serif;">Moore, Alfred</text>
<text x="74.69cm" y="19.99cm" style="fill:#000000;  font-weight:bold; font-size:9; font-family:sans-serif;">b. 1815-05-15 </text>
<text x="54.19cm" y="19.70cm" style="fill:#000000;  font-weight:bold; font-size:9; font-family:sans-serif;">Lanier, Martha</text>
<text x="54.19cm" y="20.08cm" style="fill:#000000;  font-weight:bold; font-size:9; font-family:sans-serif;">b. 1753 </text>
<text x="74.69cm" y="21.31cm" style="fill:#000000;  font-weight:bold; font-size:9; font-family:sans-serif;">Moore, William Lucien</text>
<text x="74.69cm" y="21.69cm" style="fill:#000000;  font-weight:bold; font-size:9; font-family:sans-serif;">b. 1818-05-24 </text>
<text x="54.19cm" y="21.40cm" style="fill:#000000;  font-weight:bold; font-size:9; font-family:sans-serif;">Lanier, Lewis (Rev War soldier)</text>
<text x="54.19cm" y="21.78cm" style="fill:#000000;  font-weight:bold; font-size:9; font-family:sans-serif;">b. 1755 </text>
</svg>
